<?xml version="1.0" encoding="UTF-8" standalone="no"?>
<svg
   xmlns:dc="http://purl.org/dc/elements/1.1/"
   xmlns:cc="http://creativecommons.org/ns#"
   xmlns:rdf="http://www.w3.org/1999/02/22-rdf-syntax-ns#"
   xmlns:svg="http://www.w3.org/2000/svg"
   xmlns="http://www.w3.org/2000/svg"
   id="svg1"
   viewBox="0 0 309.62128 237.21594"
   _SVGFile__filename="oldscale/actions/button_accept.svg"
   version="1.0"
   y="0"
   x="0"
   width="309.62128"
   height="237.21594">
  <defs
     id="defs11" />
  <metadata
     id="metadata8">
    <rdf:RDF>
      <cc:Work>
        <dc:format>image/svg+xml</dc:format>
        <dc:type
           rdf:resource="http://purl.org/dc/dcmitype/StillImage" />
        <cc:license
           rdf:resource="http://creativecommons.org/publicdomain/zero/1.0/" />
        <dc:publisher>
          <cc:Agent
             rdf:about="http://openclipart.org/">
            <dc:title>Openclipart</dc:title>
          </cc:Agent>
        </dc:publisher>
        <dc:title></dc:title>
      </cc:Work>
      <cc:License
         rdf:about="http://creativecommons.org/publicdomain/zero/1.0/">
        <cc:permits
           rdf:resource="http://creativecommons.org/ns#Reproduction" />
        <cc:permits
           rdf:resource="http://creativecommons.org/ns#Distribution" />
        <cc:permits
           rdf:resource="http://creativecommons.org/ns#DerivativeWorks" />
      </cc:License>
    </rdf:RDF>
  </metadata>
  <rect
     style="fill:#ffffff;fill-opacity:1;stroke:#ffffff;stroke-width:20;stroke-linecap:round;stroke-linejoin:round;stroke-miterlimit:4;stroke-dasharray:none;stroke-opacity:1"
     id="rect944"
     width="289.62128"
     height="217.21594"
     x="10"
     y="10"
     ry="45.266712"
     rx="41.596912" />
  <rect
     style="fill:#000000;stroke-width:4.9179;stroke-linecap:round;stroke-linejoin:round"
     id="rect904"
     width="289.62128"
     height="217.21594"
     x="10"
     y="10"
     ry="45.266712"
     rx="41.596912" />
  <path
     id="path5729"
     style="fill:#ffffff;stroke:#ffffff;stroke-width:2;stroke-linecap:round;stroke-linejoin:round;stroke-miterlimit:4;stroke-dasharray:none;stroke-opacity:1"
     d="m 69.801662,38.781876 c -4.4283,0 -7.35351,3.060547 -7.35351,3.060547 l -44.9375,53.839844 c -3.02973,3.936983 -2.23969,12.951383 5.89453,13.865233 l 29.86719,-0.56445 v 89.3496 H 189.09268 c 3.54131,0.81721 5.95366,-3.50308 3.875,-6.63476 L 166.39737,162.72523 H 87.971592 v -52.43554 h 25.759758 c 9.72644,-0.7931 10.2163,-11.15825 7.89063,-13.66797 L 77.155182,41.842423 c 0,0 -2.92522,-3.060547 -7.35352,-3.060547 z m 50.076178,0.0078 c -3.17525,-0.187262 -5.17336,3.792565 -3.22461,6.728515 l 26.57031,28.972657 h 78.42578 v 52.435542 h -25.75977 c -9.72643,0.7931 -10.21629,11.15825 -7.89062,13.66797 l 44.4668,54.7793 c 0,0 2.92521,3.06055 7.35351,3.06055 4.4283,0 7.35352,-3.06055 7.35352,-3.06055 l 44.9375,-53.83984 c 3.02973,-3.93699 2.23969,-12.95139 -5.89453,-13.86524 l -29.86719,0.56446 V 38.883439 H 120.52823 c -0.22133,-0.05108 -0.43871,-0.08127 -0.65039,-0.09375 z" />
</svg>
